<?xml version="1.0" encoding="utf-8"?>
<!-- Generator: Adobe Illustrator 23.0.4, SVG Export Plug-In . SVG Version: 6.00 Build 0)  -->
<svg version="1.1" id="Layer_1" xmlns="http://www.w3.org/2000/svg" xmlns:xlink="http://www.w3.org/1999/xlink" x="0px" y="0px"
	 viewBox="0 0 200 233.5" style="enable-background:new 0 0 200 233.5;" xml:space="preserve">
<style type="text/css">
	.st0{fill:#F6921E;}
	.st1{fill:#DFDFDF;}
	.st2{fill-rule:evenodd;clip-rule:evenodd;fill:#0D99B7;}
	.st3{fill-rule:evenodd;clip-rule:evenodd;fill:#CC3399;}
	.st4{fill-rule:evenodd;clip-rule:evenodd;fill:#90278E;}
	.st5{fill-rule:evenodd;clip-rule:evenodd;fill:#00ADEE;}
	.st6{fill-rule:evenodd;clip-rule:evenodd;fill:#BE1E2D;}
	.st7{fill-rule:evenodd;clip-rule:evenodd;fill:#F6921E;}
</style>
<g>
	<path class="st0" d="M180.8,54.1c-1.4-0.3-2.6-0.1-3.3,0.1c-1.1,0.2-0.2,0.9-1.1,0.2c0.9,0.7,0-0.1,1.1,0.1
		c1.1,0.2,1.4,0.1,2.5,0.1"/>
	<path class="st1" d="M179.8,155.5c13.6-24.4,10.4-53.1-1.2-79.3c20.3,15,26.3,60.8,17.3,86.8C188,186.2,165.4,181.4,179.8,155.5"/>
	<path class="st1" d="M38.6,196.5C21.4,185,9.2,167.7,3.4,147.9C31.3,152.1,42.6,169.8,38.6,196.5"/>
	<path class="st1" d="M57.9,48.7c-21.5,8.8-34,30.2-38.2,52.7c-3.5,19-15.6,15-19.7,17.3C3.3,91.8,24.5,51.3,57.9,48.7"/>
	<path class="st2" d="M124.5,195.2c-0.1,13.1-7.6,30.3,0.6,37.2c6.4,5.3,12.7-9.5,19-20.4c7.2-12.4,10.9-9.8,26.1-11.2
		c35.1-3.2,27.9-12.6,10.4-15.6c-6.5-1.1-16.1-2.5-20.5-12.1c-4.2-9.1,0.3-17.8,7.3-27.7c9.5-13.5,12.2-21.2-8.6-9.4
		c-21.4,12.2-22.5,15.3-45,3.5c-30.1-15.8-21,0.3-7.2,13.8C117.5,164.1,124.6,179.5,124.5,195.2"/>
	<path class="st3" d="M39.8,89.3C49.8,85,65.3,87,67.6,74.4c8.6,6.2,4.2,27.2-15.3,36.4C36.8,118.3,24.6,96,39.8,89.3"/>
	<path class="st3" d="M96.8,184.9c-13.4-29.2-19.2-49.4-6-80.3c15.7-36.9,6.5-31.1-11.7-7.5C62.9,118,43,119.7,13,126.2
		c-18,3.9-17.8,11.2,6.6,12.2c27.8,1.2,33.4,20.2,32.6,44.2c-0.3,8.1-1.5,16.2-4.2,23.5c-9,24.9,2.2,22.7,11.2,10.1
		c4.5-6.3,8.4-13.3,10.4-21.4c4.1-16.4,8.5-12.1,15.8-1.2C110.4,231.5,106.5,206.2,96.8,184.9"/>
	<path class="st2" d="M125.3,137.3c-5.2-5.7-4.3-18.2,1.6-23.5c7.5-6.8,14-6,18.1-1.9C159.2,126.1,136.7,149.9,125.3,137.3"/>
	<path class="st4" d="M163.4,64.8c-24.7,14.2-62.1,7.9-83.4-9.4c-10.2-8.3-8.3-8.5,2.6-11.2c9.4-2.3,15-4.2,26.1,4.2
		c6.6,5,13.3,8.6,19.5,10.1c14.7,3.6,25.8,3.3,35.9-0.4C183.5,51,184.1,52.9,163.4,64.8"/>
	<path class="st5" d="M131,27.6c5.5,11.5,17.8,21.6,31,22.1c9.6,0.4,15.7-2.2,0.4,3.4c-9.1,3.3-19.2,3.6-32.8,0.3
		c-5.1-1.2-10.7-4.2-16.3-8.3c-13.5-9.8-0.9-13.3,8.9-21.5C131.5,15.8,125.9,16.9,131,27.6"/>
	<path class="st6" d="M86.4,2.9c10.7,4.5,19.9,6.2,30.1,6.9c9.5,0.7,11.4-0.4,4,8.5c-3.4,4.1-7.5,7.6-12.2,10.5
		c-11.2,7-21-7.1-26.7-19.3C76.3-2,75.8-1.5,86.4,2.9"/>
	<path class="st7" d="M74.5,30.3c0.7-4.3,1.3-9.2,1.5-14.2c0.3-8-1-8.1,3.4-1.1c2.3,3.8,5.2,7.9,7.7,11.3c4.2,5.7,7.4,9.4,0.5,11.4
		c-2.3,0.6-4.6,1.2-6.9,1.7C69.3,41.8,72.8,40.2,74.5,30.3"/>
</g>
</svg>
